<mxfile host="65bd71144e">
    <diagram id="cqrpzaKObs8hmtwBMeHC" name="Page-1">
        <mxGraphModel dx="472" dy="373" grid="1" gridSize="10" guides="1" tooltips="1" connect="1" arrows="1" fold="1" page="1" pageScale="1" pageWidth="850" pageHeight="1100" math="0" shadow="0">
            <root>
                <mxCell id="0"/>
                <mxCell id="1" parent="0"/>
                <mxCell id="2" value="gerechten&lt;br&gt;&lt;strike&gt;foto&lt;/strike&gt;&lt;br&gt;&lt;strike&gt;titel&lt;/strike&gt;&lt;br&gt;&lt;strike&gt;gerecht type&lt;br&gt;keuken&lt;/strike&gt;&lt;br&gt;&lt;strike&gt;omschrijving&lt;/strike&gt;&lt;br&gt;&lt;strike&gt;aantal sterren&lt;br&gt;aantal calorieen&lt;br&gt;prijs/4 personen&lt;br&gt;&lt;/strike&gt;datum" style="whiteSpace=wrap;html=1;aspect=fixed;" vertex="1" parent="1">
                    <mxGeometry x="30" y="120" width="160" height="160" as="geometry"/>
                </mxCell>
                <mxCell id="3" value="foto&lt;br&gt;titel&lt;br&gt;gerecht type&lt;br&gt;keuken&lt;br&gt;aantal calorieen&lt;br&gt;aantal sterren&lt;br&gt;prijs/4 personen" style="whiteSpace=wrap;html=1;aspect=fixed;" vertex="1" parent="1">
                    <mxGeometry x="170" y="360" width="160" height="160" as="geometry"/>
                </mxCell>
                <mxCell id="22" value="" style="edgeStyle=none;html=1;fontSize=18;fontColor=#FF3333;" edge="1" parent="1" source="4" target="2">
                    <mxGeometry relative="1" as="geometry"/>
                </mxCell>
                <mxCell id="4" value="gerecht&amp;nbsp;&lt;br&gt;&lt;strike&gt;titel&lt;/strike&gt;&lt;br&gt;&lt;strike&gt;foto&lt;/strike&gt;&lt;br&gt;omschrijving &amp;nbsp;&lt;br&gt;&lt;strike&gt;prijs/ 4 personnen&lt;/strike&gt;" style="whiteSpace=wrap;html=1;aspect=fixed;" vertex="1" parent="1">
                    <mxGeometry x="300" y="120" width="160" height="160" as="geometry"/>
                </mxCell>
                <mxCell id="5" value="&lt;font style=&quot;font-size: 18px&quot;&gt;&lt;b&gt;ERD&lt;/b&gt;&lt;/font&gt;" style="text;html=1;resizable=0;autosize=1;align=center;verticalAlign=middle;points=[];fillColor=none;strokeColor=none;rounded=0;" vertex="1" parent="1">
                    <mxGeometry x="220" y="20" width="50" height="20" as="geometry"/>
                </mxCell>
                <mxCell id="6" value="Recepten Regel" style="text;html=1;resizable=0;autosize=1;align=center;verticalAlign=middle;points=[];fillColor=none;strokeColor=none;rounded=0;" vertex="1" parent="1">
                    <mxGeometry x="330" y="90" width="100" height="20" as="geometry"/>
                </mxCell>
                <mxCell id="8" value="Recepten" style="text;html=1;resizable=0;autosize=1;align=center;verticalAlign=middle;points=[];fillColor=none;strokeColor=none;rounded=0;" vertex="1" parent="1">
                    <mxGeometry x="75" y="90" width="70" height="20" as="geometry"/>
                </mxCell>
                <mxCell id="9" value="Omschrijving" style="text;html=1;resizable=0;autosize=1;align=center;verticalAlign=middle;points=[];fillColor=none;strokeColor=none;rounded=0;" vertex="1" parent="1">
                    <mxGeometry x="220" y="330" width="80" height="20" as="geometry"/>
                </mxCell>
                <mxCell id="10" value="id" style="text;html=1;resizable=0;autosize=1;align=center;verticalAlign=middle;points=[];fillColor=none;strokeColor=none;rounded=0;fontSize=18;fontColor=#FF3333;" vertex="1" parent="1">
                    <mxGeometry x="300" y="330" width="30" height="30" as="geometry"/>
                </mxCell>
                <mxCell id="11" value="id" style="text;html=1;resizable=0;autosize=1;align=center;verticalAlign=middle;points=[];fillColor=none;strokeColor=none;rounded=0;fontSize=18;fontColor=#FF3333;" vertex="1" parent="1">
                    <mxGeometry x="425" y="85" width="30" height="30" as="geometry"/>
                </mxCell>
                <mxCell id="12" value="" style="endArrow=none;html=1;fontSize=18;fontColor=#FF3333;" edge="1" parent="1">
                    <mxGeometry width="50" height="50" relative="1" as="geometry">
                        <mxPoint x="190" y="199.5" as="sourcePoint"/>
                        <mxPoint x="290" y="199.5" as="targetPoint"/>
                    </mxGeometry>
                </mxCell>
                <mxCell id="13" value="" style="triangle;whiteSpace=wrap;html=1;fontSize=18;fontColor=#FF3333;rotation=-180;" vertex="1" parent="1">
                    <mxGeometry x="290" y="190" width="10" height="20" as="geometry"/>
                </mxCell>
                <mxCell id="23" value="" style="triangle;whiteSpace=wrap;html=1;fontSize=18;fontColor=#FF3333;rotation=90;" vertex="1" parent="1">
                    <mxGeometry x="380" y="276" width="10" height="20" as="geometry"/>
                </mxCell>
                <mxCell id="25" value="" style="shape=partialRectangle;whiteSpace=wrap;html=1;top=0;left=0;fillColor=none;fontSize=18;fontColor=#FF3333;" vertex="1" parent="1">
                    <mxGeometry x="334" y="290" width="50" height="150" as="geometry"/>
                </mxCell>
            </root>
        </mxGraphModel>
    </diagram>
</mxfile>